<?xml version="1.0" encoding="UTF-8" standalone="no"?>
<svg
   id="svg2"
   width="451.71"
   height="283.01"
   version="1.1"
   sodipodi:docname="Bell_AH-1J.svg"
   inkscape:version="1.4 (86a8ad7, 2024-10-11)"
   xmlns:inkscape="http://www.inkscape.org/namespaces/inkscape"
   xmlns:sodipodi="http://sodipodi.sourceforge.net/DTD/sodipodi-0.dtd"
   xmlns="http://www.w3.org/2000/svg"
   xmlns:svg="http://www.w3.org/2000/svg">
  <defs
     id="defs1" />
  <sodipodi:namedview
     id="namedview1"
     pagecolor="#ffffff"
     bordercolor="#000000"
     borderopacity="0.25"
     inkscape:showpageshadow="2"
     inkscape:pageopacity="0.0"
     inkscape:pagecheckerboard="0"
     inkscape:deskcolor="#d1d1d1"
     inkscape:zoom="6.2683295"
     inkscape:cx="225.81774"
     inkscape:cy="128.74243"
     inkscape:window-width="3840"
     inkscape:window-height="2036"
     inkscape:window-x="-12"
     inkscape:window-y="-12"
     inkscape:window-maximized="1"
     inkscape:current-layer="layer1" />
  <g
     id="layer1"
     stroke-dasharray="none"
     stroke-width=".3">
    <g
       id="g4582"
       transform="translate(142.94079,-5.1050284)">
      <path
         id="path4294"
         fill="none"
         stroke="#000000"
         stroke-linecap="butt"
         stroke-linejoin="miter"
         stroke-miterlimit="4"
         stroke-opacity="1"
         d="m 84.75,212.41 11.76,4.82 c 0.93,0.5 1.3,1.06 1.4,1.64 l 0.56,6.6 -14.02,-0.93" />
      <path
         id="path4296"
         fill="none"
         stroke="#000000"
         stroke-linecap="butt"
         stroke-linejoin="miter"
         stroke-miterlimit="4"
         stroke-opacity="1"
         d="m 75.3,212.41 -11.76,4.82 c -0.93,0.5 -1.3,1.06 -1.4,1.64 l -0.56,6.6 14.02,-0.93" />
      <g
         id="g4507">
        <path
           id="rect4217"
           fill="#ffffff"
           fill-opacity="1"
           stroke="#000000"
           stroke-miterlimit="4"
           stroke-opacity="1"
           d="m 110,92.02 v 22.43 h -4.72 V 92.02 H 110" />
        <path
           id="rect4215"
           fill="#ffffff"
           fill-opacity="1"
           stroke="#000000"
           stroke-miterlimit="4"
           stroke-opacity="1"
           d="m 55.38,92.02 v 22.43 H 50.66 V 92.02 h 4.72" />
        <path
           id="rect4779"
           fill="#ffffff"
           fill-opacity="1"
           stroke="#000000"
           stroke-miterlimit="4"
           stroke-opacity="1"
           d="m 62.54,59.64 h -1.17 v 63.73 h 2.34 V 59.64 h -1.17" />
        <path
           id="path4781"
           fill="#ffffff"
           stroke="#000000"
           stroke-linecap="butt"
           stroke-linejoin="miter"
           stroke-miterlimit="4"
           stroke-opacity="1"
           d="m 71.12,80.22 c -2.56,-0.04 -5.13,-0.44 -7.69,-2.2 -0.42,0.8 -0.51,1.76 0,2.98 1.81,2.08 5.09,2.55 8.19,3.2 l -0.5,-3.98" />
        <path
           id="path4783"
           fill="#ffffff"
           stroke="#000000"
           stroke-linecap="butt"
           stroke-linejoin="miter"
           stroke-miterlimit="4"
           stroke-opacity="1"
           d="m 70.55,119.67 c -2.56,-0.04 -5.13,-0.45 -7.69,-2.21 -0.42,0.81 -0.51,1.77 0,2.99 1.81,2.08 5.09,2.54 8.19,3.2 l -0.5,-3.98" />
        <path
           id="rect3354"
           fill="#ffffff"
           fill-opacity="1"
           stroke="#000000"
           stroke-miterlimit="4"
           stroke-opacity="1"
           d="m 98.08,59.64 h 1.18 v 63.73 H 96.9 V 59.64 h 1.17" />
        <path
           id="path4124"
           fill="#ffffff"
           stroke="#000000"
           stroke-linecap="butt"
           stroke-linejoin="miter"
           stroke-miterlimit="4"
           stroke-opacity="1"
           d="m 89.5,80.22 c 2.56,-0.04 5.13,-0.44 7.7,-2.2 0.42,0.8 0.5,1.76 0,2.98 -1.82,2.08 -5.1,2.55 -8.2,3.2 l 0.5,-3.98" />
        <path
           id="path4126"
           fill="#ffffff"
           stroke="#000000"
           stroke-linecap="butt"
           stroke-linejoin="miter"
           stroke-miterlimit="4"
           stroke-opacity="1"
           d="m 90.07,119.67 c 2.56,-0.04 5.13,-0.45 7.7,-2.21 0.42,0.81 0.5,1.77 0,2.99 -1.82,2.08 -5.1,2.54 -8.2,3.2 l 0.5,-3.98" />
        <g
           id="g5604">
          <g
             id="g5592"
             fill="#ffffff"
             stroke="#000000"
             stroke-dasharray="none"
             stroke-miterlimit="4"
             stroke-opacity="1"
             stroke-width="0.3">
            <path
               id="path5594"
               stroke-linecap="butt"
               stroke-linejoin="miter"
               d="m 88.65,33.23 c 0.1,-0.72 -2.12,-0.28 -1.9,0.12 0.73,2.53 1.03,2.57 1.9,-0.12" />
            <path
               id="path5596"
               fill-opacity="1"
               d="m 87.86,33.2 c -0.4,0 -0.73,-0.08 -0.73,-0.17 0,-0.1 0.33,-0.17 0.73,-0.17 0.41,0 0.74,0.08 0.74,0.17 0,0.1 -0.33,0.17 -0.74,0.17" />
          </g>
        </g>
        <g
           id="g5609">
          <g
             id="g5611"
             fill="#ffffff"
             stroke="#000000"
             stroke-dasharray="none"
             stroke-miterlimit="4"
             stroke-opacity="1"
             stroke-width="0.3">
            <path
               id="path5613"
               stroke-linecap="butt"
               stroke-linejoin="miter"
               d="m 72.93,33.23 c -0.12,-0.72 2.1,-0.28 1.9,0.12 -0.74,2.53 -1.04,2.57 -1.9,-0.12" />
            <path
               id="path5615"
               fill-opacity="1"
               d="m 73.7,33.2 c 0.41,0 0.74,-0.08 0.74,-0.17 0,-0.1 -0.33,-0.17 -0.73,-0.17 -0.4,0 -0.74,0.08 -0.74,0.17 0,0.1 0.33,0.17 0.74,0.17" />
          </g>
        </g>
        <path
           id="rect5293"
           fill="#ffffff"
           fill-opacity="1"
           stroke="#000000"
           stroke-miterlimit="4"
           stroke-opacity="1"
           d="m 63.75,92.02 v 22.43 H 59.03 V 92.02 h 4.72" />
        <g
           id="g4642"
           fill="#ffffff"
           stroke="#000000"
           stroke-miterlimit="4"
           stroke-opacity="1">
          <path
             id="path4646"
             stroke-linecap="butt"
             stroke-linejoin="miter"
             d="m 70.45,95 -16.45,5 0.5,11.17 16.94,0.07 -0.5,-16.45 -0.5,0.22" />
          <path
             id="rect4648"
             fill-opacity="1"
             d="m 53.01,93.77 h -1.48 v 18.42 H 54.5 V 93.77 H 53" />
        </g>
        <path
           id="rect4631"
           fill="#ffffff"
           fill-opacity="1"
           stroke="#000000"
           stroke-miterlimit="4"
           stroke-opacity="1"
           d="m 101.63,92.02 v 22.43 H 96.91 V 92.02 h 4.72" />
        <path
           id="path4629"
           fill="#ffffff"
           stroke="#000000"
           stroke-linecap="butt"
           stroke-linejoin="miter"
           stroke-miterlimit="4"
           stroke-opacity="1"
           d="m 90.3,95 16.45,5 -0.5,11.17 -16.95,0.07 0.5,-16.45 0.5,0.22" />
        <path
           id="rect4633"
           fill="#ffffff"
           fill-opacity="1"
           stroke="#000000"
           stroke-miterlimit="4"
           stroke-opacity="1"
           d="m 107.73,93.77 h 1.49 v 18.42 h -2.97 V 93.77 h 1.48" />
        <path
           id="path4620"
           fill="#ffffff"
           stroke="#000000"
           stroke-miterlimit="4"
           stroke-opacity="1"
           d="m 96.1,119.43 c 0.02,-5.91 -1.07,-11.95 -1.73,-18.14 l -4.73,-1.83 -0.1,-27.19 c 0.7,-1.2 1.34,-2.34 1.3,-2.81 L 90.24,46.9 C 90.14,46 88.8,44.63 88.04,43.48 L 87.7,37.75 C 86.48,16.66 76.67,16 73.8,37.54 l -0.55,5.52 c -0.9,1.28 -2.43,2.56 -2.7,3.84 l -0.62,22.56 c -0.09,1.16 0.87,1.87 1.31,2.81 l -0.1,27.2 -4.72,1.82 c -2.4,14.16 -2.56,27.49 0.2,40.36 1.23,4.98 2.32,8.04 4.86,10.69 0.53,0.1 5.51,2.57 2.05,1.21 l 0.62,0.73 0.12,3.94 c 0.33,27.16 0.31,54.52 2.66,81.12 -0.53,13.06 -0.27,18.94 2.85,24.02 v 0.24 c 2.07,-5.44 3.95,-11.47 3.41,-24.57 2.35,-26.6 2.5,-53.8 2.83,-80.96 l 0.62,-4.77 -0.12,0.03 2.1,-0.64 c 2.79,-2.86 4.85,-8.66 5.4,-14.3 0.6,-7.23 2.05,-11.36 2.08,-18.96" />
        <path
           id="rect5631"
           fill="#ffffff"
           fill-opacity="1"
           stroke="#000000"
           stroke-miterlimit="4"
           stroke-opacity="1"
           d="m 81.86,152.83 v 85 h -3.22 v -85 h 3.22" />
        <path
           id="rect3330"
           fill="#000000"
           fill-opacity="1"
           stroke="none"
           d="M 83.5,37.89 V 83.74 H 77.95 V 37.9 h 5.55" />
        <path
           id="path3332"
           fill="#000000"
           stroke="none"
           d="m 76.81,38.03 c -0.85,0.33 -2.5,0.72 -3,2.5 -0.9,5.4 -0.95,12.05 -1.23,17.54 1.11,-0.99 2.62,-2.74 4.23,-3.02 V 38.03" />
        <path
           id="path3336"
           fill="#000000"
           stroke="none"
           d="m 76.62,57.18 c -1.28,0.64 -2.96,1.6 -3.97,3.31 l -0.04,18.7 2.5,6.97 1.38,-1 0.13,-27.98" />
        <path
           id="path3348"
           fill="#000000"
           stroke="none"
           d="m 84.57,38.03 c 0.85,0.33 2.5,0.72 3,2.5 0.9,5.4 0.96,12.05 1.23,17.54 -1.1,-0.99 -2.62,-2.74 -4.23,-3.02 V 38.03" />
        <path
           id="path3350"
           fill="#000000"
           stroke="none"
           d="m 84.76,57.18 c 1.29,0.64 2.96,1.6 3.97,3.31 l 0.04,18.7 -2.49,6.97 -1.39,-1 -0.13,-27.98" />
        <path
           id="path3358"
           fill="none"
           stroke="#000000"
           stroke-linecap="butt"
           stroke-linejoin="miter"
           stroke-opacity="1"
           d="m 85.33,190.99 c -0.2,0.74 -2.4,0.4 -3.44,0.46 -0.27,0.84 -3.04,0.88 -3.28,0.04 -0.3,-0.05 -3.41,0.4 -4.02,-0.2" />
        <path
           id="path3360"
           fill="none"
           stroke="#000000"
           stroke-linecap="butt"
           stroke-linejoin="miter"
           stroke-opacity="1"
           d="m 93.37,101.83 c -1.46,0.44 -2.76,1.25 -4.84,0.24" />
        <path
           id="path3362"
           fill="none"
           stroke="#000000"
           stroke-linecap="butt"
           stroke-linejoin="miter"
           stroke-opacity="1"
           d="m 72.16,101.83 c -1.45,0.44 -2.75,1.25 -4.83,0.24" />
        <g
           id="g4187"
           fill="#ffffff"
           stroke="#000000"
           stroke-miterlimit="4"
           stroke-opacity="1"
           display="inline">
          <path
             id="path5633"
             stroke-linecap="butt"
             stroke-linejoin="miter"
             d="M 86.89,104.21 C 86.82,94.84 85.08,86.89 80.45,86.34 V 86.3 l -0.23,0.02 -0.23,-0.02 v 0.04 C 68.69,87.7 74.6,133.18 80,135.6 v 0.1 c 0.08,0 0.15,0 0.22,-0.03 a 1,1 0 0 0 0.22,0.03 v -0.1 c 3.19,-1.43 6.55,-17.88 6.45,-31.39" />
          <g
             id="g4885"
             fill-opacity="1">
            <path
               id="rect4881"
               d="m 77.35,85.82 v 12.5 h -0.99 v -12.5 h 0.99" />
            <path
               id="rect4883"
               d="m 77.64,91.95 v 7.46 h -1.67 v -7.46 h 1.67" />
          </g>
          <path
             id="path4897"
             stroke-linecap="butt"
             stroke-linejoin="miter"
             d="m 83.12,115.76 h -0.5 l -3.8,-4.1 1,-2.95 1.23,1.58 -1.04,1.33 2.42,2.41 1.03,-0.3 -0.34,2.03" />
          <g
             id="g4889"
             fill-opacity="1">
            <path
               id="rect4891"
               d="m 84.25,124.98 v -12.5 h -0.98 v 12.5 h 0.98" />
            <path
               id="rect4893"
               d="m 84.55,118.86 v -7.47 h -1.68 v 7.47 h 1.68" />
          </g>
          <path
             id="path4895"
             stroke-linecap="butt"
             stroke-linejoin="miter"
             d="m 77.99,95.59 h 0.5 l 3.79,4.1 -0.99,2.95 -1.23,-1.58 1.04,-1.33 -2.42,-2.41 -1.04,0.3 0.35,-2.03" />
          <path
             id="rect4243"
             fill-opacity="1"
             d="m 81.98,124.87 -0.33,-0.41 11.25,-8.97 0.33,0.41 67.39,84.48 0.33,0.42 -11.25,8.96 -0.32,-0.4 -67.4,-84.49"
             opacity="0.98" />
          <path
             id="rect4245"
             fill-opacity="1"
             d="M 0.35,9.4 0.02,9 11.27,0.01 11.59,0.43 79,84.92 79.33,85.32 68.08,94.3 67.75,93.88 0.35,9.4"
             opacity="0.98" />
          <g
             id="g4842"
             fill-opacity="1">
            <g
               id="g4799">
              <path
                 id="path4795"
                 d="m 71.44,94.13 c -0.65,0.52 -1.82,0.1 -2.63,-0.9 -0.8,-1.02 -0.94,-2.26 -0.3,-2.78 0.65,-0.51 1.83,-0.1 2.64,0.91 0.8,1.02 0.94,2.26 0.3,2.77" />
              <path
                 id="rect4789"
                 d="m 71.13,92.14 0.78,-0.62 2.78,3.49 -0.78,0.62 -1.57,1.24 -0.78,0.62 -2.76,-3.49 0.78,-0.62 1.56,-1.24" />
              <path
                 id="path4797"
                 d="m 69.66,91.93 c -0.1,0.08 -0.24,0.07 -0.3,0 -0.07,-0.09 -0.04,-0.22 0.06,-0.3 0.1,-0.08 0.24,-0.08 0.3,0 0.07,0.08 0.04,0.22 -0.06,0.3" />
            </g>
            <g
               id="g4804">
              <path
                 id="path4806"
                 d="m 89.45,116.8 c -0.65,0.5 -0.52,1.75 0.3,2.76 0.8,1.02 1.98,1.42 2.62,0.91 0.65,-0.51 0.52,-1.75 -0.29,-2.77 -0.8,-1.01 -1.98,-1.42 -2.63,-0.9" />
              <path
                 id="rect4808"
                 d="m 91.32,117.54 0.78,-0.62 -2.77,-3.49 -0.78,0.62 -1.56,1.24 -0.78,0.62 2.77,3.5 c 0,0 0.35,-0.3 0.78,-0.63 l 1.56,-1.24" />
              <path
                 id="path4810"
                 d="m 91.2,119.03 c -0.1,0.08 -0.13,0.2 -0.07,0.3 0.07,0.07 0.2,0.08 0.3,0 0.1,-0.09 0.13,-0.22 0.07,-0.3 -0.07,-0.08 -0.2,-0.09 -0.3,0" />
            </g>
            <path
               id="rect4787"
               d="M 74.28,93.9 90.5,114.14 86.78,117.13 70.56,96.88 74.28,93.9" />
          </g>
        </g>
        <path
           id="path4429"
           fill="#ffffff"
           fill-opacity="1"
           stroke="#000000"
           stroke-miterlimit="4"
           stroke-opacity="1"
           d="m 80.8,106.99 c -0.64,0 -1.16,-0.6 -1.16,-1.32 0,-0.73 0.52,-1.32 1.16,-1.32 0.65,0 1.17,0.6 1.17,1.32 0,0.73 -0.52,1.32 -1.17,1.32"
           display="inline" />
        <path
           id="rect4433"
           fill="#ffffff"
           fill-opacity="1"
           stroke="#000000"
           stroke-miterlimit="4"
           stroke-opacity="1"
           d="m 81.81,237.98 v 8.4 h -3.08 v -8.4 h 3.08" />
        <g
           id="g4454"
           stroke="#000000"
           stroke-miterlimit="4"
           stroke-opacity="1">
          <g
             id="g4445"
             fill="#ffffff">
            <path
               id="rect4439"
               fill-opacity="1"
               d="m 90.08,252.53 v 8.9 h -1.06 v -8.9 h 1.06" />
            <path
               id="rect4441"
               fill-opacity="1"
               d="m 91.63,257.16 v 0.9 h -5.6 v -0.9 h 5.6" />
            <path
               id="path4443"
               stroke-linecap="butt"
               stroke-linejoin="miter"
               d="m 82.89,253.43 1.28,0.54 v 0.96 l 2.4,1.27 -0.16,2.61 -2.4,0.6 -0.37,1.11 -2.08,-0.16 -1.28,-0.21 0.7,-6.88 1.91,0.16" />
            <path
               id="rect4435"
               fill-opacity="1"
               d="m 90.5,235.06 v 20.3 l -1.64,-2.78 v -20.3 l 1.65,2.78" />
            <path
               id="rect4437"
               fill-opacity="1"
               d="m 90.5,262.4 v 20.3 l -1.64,-2.78 v -20.3 l 1.65,2.78" />
          </g>
          <path
             id="rect4452"
             fill="none"
             d="m 92,255.83 v 3.73 h -4.26 v -3.73 H 92" />
        </g>
        <path
           id="path4431"
           fill="#ffffff"
           stroke="#000000"
           stroke-linecap="butt"
           stroke-linejoin="miter"
           stroke-miterlimit="4"
           stroke-opacity="1"
           d="m 82.2,243.14 c 0.17,-2.58 -3.2,-2.96 -3.22,0 -0.45,8.34 0.1,16.45 0.93,24.49 1.12,-7.87 2,-15.93 2.3,-24.49" />
        <path
           id="rect4221"
           fill="#ffffff"
           fill-opacity="1"
           stroke="#000000"
           stroke-miterlimit="4"
           stroke-opacity="1"
           d="m 80.4,153.24 v -0.53 h 7.26 v 3.17 H 80.4 v -2.64"
           opacity="0.98" />
        <path
           id="rect4223"
           fill="#ffffff"
           fill-opacity="1"
           stroke="#000000"
           stroke-miterlimit="4"
           stroke-opacity="1"
           d="m 72.23,153.25 v -0.53 h 7.26 v 3.17 h -7.26 v -2.63"
           opacity="0.98" />
        <path
           id="path4236"
           fill="none"
           stroke="#000000"
           stroke-linecap="butt"
           stroke-linejoin="miter"
           stroke-opacity="1"
           d="M 69.07,148.88 H 91.59" />
        <path
           id="path4107"
           fill="none"
           stroke="#000000"
           stroke-linecap="butt"
           stroke-linejoin="miter"
           stroke-opacity="1"
           d="m 77.51,25.22 h 7.6" />
      </g>
    </g>
  </g>
  <script
     id="script1"
     type="text/javascript">
    //
    <![CDATA[
    const CONFIG = {
        g4187: {
            center: [80.805,105.67], // Initial guess of center
            translate: [0, 0],        // Original translation
            rpm: 160                  // Rotation speed in RPM
        },
        g3908: {
            center: [435,202.7],       // Initial guess of center for g999
            translate: [0, 0],      // Original translation for g999
            rpm: -430                   // Rotation speed in RPM for g999
        }
    };

    (function animate() {
        // Iterate over all items in CONFIG
        for (const [id, config] of Object.entries(CONFIG)) {
            const { center, translate, rpm } = config;

            // Calculate the rotation angle based on current time
            const angle = (Date.now() / 60000) * rpm * 360 % 360;

            // Update the transform attribute for the element with the current ID
            const element = document.getElementById(id);
            if (element) {
                element.setAttribute(
                    'transform',
                    `translate(${translate.join(',')}) rotate(${angle}, ${center.join(',')})`
                );
            }
        }

        // Schedule the next animation frame
        requestAnimationFrame(animate);
    })();
	
//]]></script>
</svg>
